<svg width="38" height="45" viewBox="0 0 38 45" fill="none" xmlns="http://www.w3.org/2000/svg">
<path d="M35.2062 31.8464C33.4934 29.2309 31.0956 27.1356 28.2741 25.789V19.5291C28.2741 17.0791 27.3008 14.7294 25.5684 12.9969C23.8359 11.2645 21.4862 10.2912 19.0362 10.2912C16.5861 10.2912 14.2364 11.2645 12.5039 12.9969C10.7715 14.7294 9.79821 17.0791 9.79821 19.5291V25.7673C6.9436 27.1233 4.51951 29.2422 2.79386 31.8898V21.7266V18.9364C2.79386 8.3323 11.2078 3.50009 19.0181 3.50009C23.7166 3.50009 28.1223 5.19154 31.0607 8.13713C33.8002 10.8839 35.1845 14.5126 35.1772 18.9292V21.7266L35.2062 31.8464ZM35.2062 41.4783H28.2885V28.3225C29.4515 28.9793 30.5223 29.7875 31.4727 30.726C33.3012 32.5787 34.5917 34.8936 35.2062 37.4231V41.4783ZM25.4911 24.6758C21.2959 23.3674 16.8017 23.3674 12.6065 24.6758V19.5291C12.5861 18.6703 12.7377 17.816 13.0523 17.0166C13.3669 16.2172 13.8382 15.4887 14.4385 14.8741C15.0387 14.2595 15.7558 13.7711 16.5475 13.4376C17.3393 13.1042 18.1897 12.9324 19.0488 12.9324C19.9079 12.9324 20.7583 13.1042 21.5501 13.4376C22.3418 13.7711 23.0589 14.2595 23.6591 14.8741C24.2594 15.4887 24.7307 16.2172 25.0453 17.0166C25.3599 17.816 25.5115 18.6703 25.4911 19.5291V24.6758ZM25.4911 34.4812C24.6815 33.573 23.689 32.8462 22.5787 32.3486C21.4684 31.851 20.2655 31.5938 19.0488 31.5938C17.8321 31.5938 16.6292 31.851 15.5189 32.3486C14.4086 32.8462 13.4161 33.573 12.6065 34.4812V27.025C16.7748 25.5505 21.3228 25.5505 25.4911 27.025V34.4812ZM9.81266 41.4927H2.79386V37.5171C3.26689 35.5826 4.13452 33.7667 5.34232 32.1832C6.55012 30.5998 8.07204 29.2829 9.81266 28.3153V41.4927ZM38.0036 18.9328C38.0289 6.77818 28.5452 0.706299 19.0506 0.706299C9.55605 0.706299 0.036207 6.78902 0.0325928 18.9328V43.177C0.0325928 43.4732 0.150262 43.7572 0.359701 43.9667C0.56914 44.1761 0.853204 44.2938 1.1494 44.2938H11.5222C11.8184 44.2938 12.1024 44.1761 12.3119 43.9667C12.5213 43.7572 12.639 43.4732 12.639 43.177V40.5422C12.639 37.0147 15.3569 33.939 18.8844 33.8342C19.744 33.812 20.5994 33.9622 21.4001 34.2759C22.2008 34.5896 22.9306 35.0605 23.5464 35.6608C24.1621 36.2611 24.6515 36.9786 24.9855 37.771C25.3195 38.5635 25.4914 39.4148 25.4911 40.2747V43.1661C25.4911 43.3131 25.5202 43.4586 25.5765 43.5943C25.6329 43.7301 25.7154 43.8533 25.8195 43.9571C25.9236 44.0608 26.0471 44.143 26.1831 44.1989C26.319 44.2549 26.4646 44.2834 26.6116 44.2829H36.8832C37.1794 44.2829 37.4634 44.1653 37.6728 43.9558C37.8823 43.7464 37.9999 43.4623 37.9999 43.1661V18.9328H38.0036Z" fill="#F05A27"/>
</svg>
